PathFileType	4	(X/Y/Z)	OpenSim_Sub07_EMGBaseline_Magnet.trc
DataRate	CameraRate	NumFrames	NumMarkers	Units	OrigDataRate	OrigDataStartFrame	OrigNumFrames
100	100	23	8	m	100	4268	6828
Frame#	Time	torso_imu_offset_imu	pelvis_imu_offset_imu	tibia_r_imu_offset_imu	femur_r_imu_offset_imu	tibia_l_imu_offset_imu	femur_l_imu_offset_imu	toes_r_imu_offset_imu	toes_l_imu_offset_imu
				X1	Y1	Z1	X2	Y2	Z2	X3	Y3	Z3	X4	Y4	Z4	X5	Y5	Z5	X6	Y6	Z6	X7	Y7	Z7	X8		Y8	Z8	

4268	42.67000000	0.93310500	0.17236300	0.06250000	-0.72143600	0.11303700	-0.60009800	-0.46118200	-0.67065400	0.14819300	-0.67749000	-0.51806600	-0.06079100	-0.74731400	0.29150400	0.08105500	-0.79077100	0.06079100	0.29736300	-0.62451200	-0.33886700	-0.35668900	-0.57836900	-0.24243200	-0.52905300
4269	42.68000000	0.93115200	0.16601600	0.05615200	-0.71289100	0.11303700	-0.59765600	-0.45459000	-0.67895500	0.15307600	-0.67749000	-0.51806600	-0.06079100	-0.74975600	0.29589800	0.08984400	-0.78198200	0.06298800	0.30419900	-0.63281200	-0.34326200	-0.36499000	-0.58740200	-0.24267600	-0.52026400
4270	42.69000000	0.92895500	0.16821300	0.05371100	-0.71948200	0.11523400	-0.59301800	-0.43969700	-0.68530300	0.15332000	-0.67529300	-0.52002000	-0.06762700	-0.74536100	0.30249000	0.08496100	-0.78222700	0.06738300	0.31079100	-0.63696300	-0.34106400	-0.36718800	-0.60107400	-0.23168900	-0.51342800
4271	42.70000000	0.93090800	0.17016600	0.06030300	-0.71948200	0.11718800	-0.59790000	-0.43359400	-0.68310500	0.14868200	-0.67309600	-0.52002000	-0.06518600	-0.74560500	0.31127900	0.08667000	-0.77148400	0.07617200	0.32421900	-0.64111300	-0.34326200	-0.36914100	-0.61938500	-0.22534200	-0.50000000
4272	42.71000000	0.92675800	0.16601600	0.05615200	-0.71972700	0.12158200	-0.59570300	-0.42260700	-0.69580100	0.14917000	-0.67309600	-0.52417000	-0.07202100	-0.73901400	0.31347700	0.08203100	-0.77368200	0.07836900	0.32202100	-0.64941400	-0.33935500	-0.37353500	-0.62182600	-0.21655300	-0.49121100
4273	42.72000000	0.92456100	0.16796900	0.05151400	-0.71777300	0.12793000	-0.60058600	-0.40991200	-0.70190400	0.15380900	-0.66894500	-0.52002000	-0.07666000	-0.72607400	0.33105500	0.08544900	-0.77148400	0.07836900	0.32202100	-0.66406200	-0.34350600	-0.37548800	-0.63110400	-0.20996100	-0.48437500
4274	42.73000000	0.93505900	0.17456100	0.05566400	-0.72412100	0.12353500	-0.59350600	-0.40356400	-0.70825200	0.14746100	-0.66894500	-0.52002000	-0.08593800	-0.72876000	0.34204100	0.08496100	-0.76733400	0.08056600	0.32861300	-0.67431600	-0.34179700	-0.37158200	-0.64477500	-0.20141600	-0.47094700
4275	42.74000000	0.93090800	0.17236300	0.05371100	-0.72387700	0.11938500	-0.59326200	-0.38867200	-0.71435500	0.14526400	-0.66674800	-0.51782200	-0.09057600	-0.71777300	0.35302700	0.08886700	-0.76538100	0.08935500	0.33520500	-0.68286100	-0.33374000	-0.37573200	-0.64941400	-0.19726600	-0.45532200
4276	42.75000000	0.93090800	0.16821300	0.05151400	-0.72412100	0.12353500	-0.58886700	-0.38012700	-0.71850600	0.14990200	-0.66894500	-0.51977500	-0.09497100	-0.71997100	0.35083000	0.09790000	-0.76489300	0.07397500	0.34448200	-0.69751000	-0.33593800	-0.36547900	-0.66503900	-0.19751000	-0.43969700
4277	42.76000000	0.93115200	0.16601600	0.04736300	-0.72387700	0.11938500	-0.58862300	-0.36914100	-0.73535200	0.14843800	-0.67334000	-0.51171900	-0.09765600	-0.71362300	0.35961900	0.10864300	-0.76269500	0.07421900	0.34668000	-0.71020500	-0.32812500	-0.36157200	-0.68066400	-0.19751000	-0.42382800
4278	42.77000000	0.92871100	0.17016600	0.04711900	-0.72192400	0.12573200	-0.59106400	-0.35034200	-0.73315400	0.14843800	-0.66894500	-0.51367200	-0.09985400	-0.71167000	0.37060500	0.11035200	-0.76220700	0.06543000	0.35351600	-0.72070300	-0.32617200	-0.35522500	-0.68115200	-0.18676800	-0.41503900
4279	42.78000000	0.92871100	0.17236300	0.04467800	-0.72192400	0.12768600	-0.59350600	-0.33740200	-0.74365200	0.14868200	-0.67553700	-0.50756800	-0.10913100	-0.70263700	0.37060500	0.11010700	-0.76001000	0.06543000	0.34912100	-0.73950200	-0.32031200	-0.34301800	-0.68335000	-0.18676800	-0.40136700
4280	42.79000000	0.92871100	0.17236300	0.04248000	-0.72607400	0.12353500	-0.58886700	-0.32470700	-0.75195300	0.14453100	-0.67968800	-0.50756800	-0.10693400	-0.70288100	0.37939500	0.11425800	-0.76171900	0.05029300	0.35376000	-0.75439500	-0.31665000	-0.33056600	-0.69238300	-0.18701200	-0.38793900
4281	42.80000000	0.93090800	0.17016600	0.04272500	-0.72412100	0.12548800	-0.58422900	-0.31176800	-0.75805700	0.14477500	-0.68408200	-0.50341800	-0.10717800	-0.70092800	0.38818400	0.10913100	-0.76635700	0.05444300	0.35131800	-0.76709000	-0.30664100	-0.31616200	-0.69921900	-0.18481400	-0.38134800
4282	42.81000000	0.93090800	0.16821300	0.03833000	-0.72631800	0.12548800	-0.57714800	-0.29296900	-0.76220700	0.15161100	-0.68847700	-0.49511700	-0.10742200	-0.69018600	0.39917000	0.10864300	-0.76391600	0.04809600	0.35595700	-0.77978500	-0.29882800	-0.28515600	-0.69726600	-0.17822300	-0.38793900
4283	42.82000000	0.93090800	0.17236300	0.04272500	-0.73046900	0.12329100	-0.58178700	-0.27587900	-0.76855500	0.14965800	-0.69262700	-0.49096700	-0.11669900	-0.69482400	0.40795900	0.11718800	-0.75537100	0.05688500	0.35595700	-0.79858400	-0.29516600	-0.26464800	-0.70166000	-0.17602500	-0.38574200
4284	42.83000000	0.92236300	0.17016600	0.03613300	-0.72851600	0.12548800	-0.58422900	-0.25268600	-0.77465800	0.14550800	-0.69921900	-0.48266600	-0.11474600	-0.68383800	0.41674800	0.12548800	-0.75781200	0.06103500	0.36035200	-0.82006800	-0.28149400	-0.23168900	-0.70385700	-0.17602500	-0.38134800
4285	42.84000000	0.93310500	0.16821300	0.02954100	-0.72827100	0.12353500	-0.58178700	-0.24218800	-0.77880900	0.14111300	-0.70556600	-0.48071300	-0.10815400	-0.67724600	0.42553700	0.13623000	-0.75585900	0.06982400	0.36254900	-0.83276400	-0.27148400	-0.19848600	-0.70629900	-0.17382800	-0.38354500
4286	42.85000000	0.93090800	0.16821300	0.03393600	-0.73461900	0.12133800	-0.57714800	-0.21460000	-0.78930700	0.14379900	-0.70385700	-0.47045900	-0.10839800	-0.66650400	0.43432600	0.14233400	-0.75610400	0.07861300	0.37133800	-0.84765600	-0.25976600	-0.15698200	-0.70190400	-0.16943400	-0.37915000
4287	42.86000000	0.92651400	0.17431600	0.03149400	-0.73046900	0.12133800	-0.57006800	-0.19970700	-0.79541000	0.13720700	-0.70825200	-0.45996100	-0.10888700	-0.67065400	0.42993200	0.14257800	-0.74755900	0.08740200	0.37353500	-0.85839800	-0.25390600	-0.11767600	-0.70874000	-0.16943400	-0.38134800
4288	42.87000000	0.92651400	0.17456100	0.02710000	-0.73925800	0.12548800	-0.57495100	-0.17871100	-0.79956100	0.13305700	-0.72094700	-0.45190400	-0.12304700	-0.66210900	0.44311500	0.15087900	-0.74804700	0.10034200	0.36889600	-0.86084000	-0.23584000	-0.07226600	-0.70434600	-0.16943400	-0.38354500
4289	42.88000000	0.92871100	0.17651400	0.02050800	-0.73071300	0.12548800	-0.57031200	-0.15576200	-0.80175800	0.13085900	-0.72119100	-0.44555700	-0.12085000	-0.66235400	0.44751000	0.15063500	-0.74389600	0.10693400	0.38452100	-0.86547900	-0.22802700	-0.02441400	-0.69751000	-0.16723600	-0.38134800
4290	42.89000000	0.92675800	0.17016600	0.02734400	-0.73266600	0.12329100	-0.57470700	-0.13256800	-0.80371100	0.13110400	-0.73413100	-0.43335000	-0.11914100	-0.65136700	0.45410200	0.15454100	-0.74438500	0.11987300	0.37988300	-0.87207000	-0.21826200	0.02539100	-0.70434600	-0.16943400	-0.38818400
